<?xml version="1.0" encoding="iso-8859-1"?>
<!-- Generator: Adobe Illustrator 16.0.0, SVG Export Plug-In . SVG Version: 6.00 Build 0)  -->
<!DOCTYPE svg PUBLIC "-//W3C//DTD SVG 1.1//EN" "http://www.w3.org/Graphics/SVG/1.1/DTD/svg11.dtd">
<svg version="1.1" id="Capa_1" xmlns="http://www.w3.org/2000/svg" xmlns:xlink="http://www.w3.org/1999/xlink" x="0px" y="0px"
	 width="792.002px" height="792.002px" viewBox="0 0 792.002 792.002" style="enable-background:new 0 0 792.002 792.002;"
	 xml:space="preserve">
<g>
	<g id="Shape_18">
		<g>
			<path d="M520.903,75.556c1.644,0.572,3.301,0.851,4.943,0.851c6.116,0,11.852-3.784,13.993-9.856l16.662-46.864
				c2.743-7.686-1.305-16.12-9.05-18.833c-7.744-2.728-16.208,1.306-18.936,9.006l-16.663,46.863
				C509.111,64.409,513.159,72.842,520.903,75.556z M410.852,72.769c2.552,5.31,7.862,8.405,13.406,8.405
				c2.142,0,4.327-0.455,6.381-1.438c7.407-3.52,10.546-12.335,7.011-19.684l-19.053-39.676c-3.535-7.363-12.38-10.502-19.802-6.967
				c-7.393,3.521-10.532,12.335-6.997,19.684L410.852,72.769z M605.316,144.847c2.142,0,4.327-0.455,6.381-1.438l39.882-18.951
				c7.407-3.521,10.546-12.336,7.011-19.684c-3.535-7.363-12.424-10.502-19.786-6.967l-39.896,18.951
				c-7.407,3.52-10.547,12.321-6.997,19.684C594.463,141.751,599.772,144.847,605.316,144.847z M339.083,196.741
				c7.715,2.728,16.208-1.291,18.951-8.992c22.251-62.572,91.512-95.384,154.334-73.368c30.465,10.722,54.916,32.592,68.836,61.59
				c13.92,29.013,15.65,61.649,4.884,91.952c-2.742,7.686,1.306,16.12,9.051,18.833c1.643,0.572,3.3,0.851,4.942,0.851
				c6.116,0,11.852-3.784,13.993-9.857c13.406-37.726,11.25-78.399-6.072-114.511c-17.337-36.112-47.787-63.365-85.733-76.712
				c-78.193-27.575-164.499,13.421-192.221,91.336C327.304,185.579,331.353,194.027,339.083,196.741z M567.078,290.16
				c0.073-1.672,0.117-3.33,0.117-4.987c0-62.836-51.396-113.939-114.585-113.939c-41.26,0-79.381,22.647-99.521,57.776
				c-21.283-10.766-44.78-16.384-68.835-16.384c-83.973-0.015-152.295,67.75-152.295,151.048
				c0,83.254,67.457,150.989,150.374,150.989h288.001c1.701,0,3.389-0.293,4.987-0.865c48.976-17.396,81.875-62.646,81.875-112.59
				C657.196,347.555,618.693,301.41,567.078,290.16z M567.68,485.138H282.333c-66.548,0-120.687-54.476-120.687-121.448
				c0-67.017,55.004-121.522,122.593-121.522c23.908,0,47.142,6.909,67.178,19.992c3.77,2.464,8.419,3.065,12.717,1.716
				c4.283-1.379,7.701-4.606,9.299-8.786c12.512-32.489,44.34-54.314,79.176-54.314c46.805,0,84.883,37.857,84.883,84.398
				c0,4.723-0.47,9.563-1.423,14.829c-0.748,4.092,0.278,8.332,2.831,11.646c2.566,3.3,6.409,5.397,10.59,5.72
				c43.754,3.491,78.018,40.322,78.018,83.84C627.509,437.923,603.557,471.351,567.68,485.138z M296.282,547.667
				c-7.774-2.553-16.193,1.584-18.804,9.299l-38.18,113.206c-2.596,7.729,1.584,16.119,9.358,18.701
				c1.555,0.514,3.139,0.763,4.708,0.763c6.205,0,11.999-3.901,14.081-10.062l38.18-113.205
				C308.236,558.638,304.041,550.263,296.282,547.667z M192.273,547.49c-7.862-2.376-16.135,2.054-18.511,9.857l-24.099,79.234
				c-2.376,7.818,2.053,16.047,9.915,18.423c1.438,0.426,2.875,0.631,4.312,0.631c6.38,0,12.262-4.106,14.198-10.487l24.114-79.235
				C204.564,558.096,200.135,549.852,192.273,547.49z M393.778,548.033c-7.686-2.772-16.223,1.232-18.995,8.918l-52.452,145.255
				c-2.772,7.671,1.232,16.135,8.962,18.892c1.657,0.587,3.344,0.865,5.016,0.865c6.087,0,11.793-3.755,13.979-9.783l52.452-145.255
				C405.498,559.254,401.508,550.791,393.778,548.033z M496.174,549.603c-7.598-2.992-16.252,0.602-19.332,8.185l-71.358,176.204
				c-3.065,7.568,0.616,16.179,8.229,19.229c1.833,0.719,3.696,1.07,5.559,1.07c5.867,0,11.441-3.49,13.773-9.24l71.358-176.204
				C507.453,561.264,503.771,552.653,496.174,549.603z M607.663,548.84c-7.627-3.036-16.251,0.66-19.303,8.229l-86.114,214.678
				c-3.051,7.583,0.66,16.164,8.272,19.199c1.819,0.719,3.667,1.057,5.516,1.057c5.882,0,11.47-3.521,13.787-9.285l86.115-214.677
				C618.987,560.457,615.276,551.876,607.663,548.84z"/>
		</g>
	</g>
</g>
<g>
</g>
<g>
</g>
<g>
</g>
<g>
</g>
<g>
</g>
<g>
</g>
<g>
</g>
<g>
</g>
<g>
</g>
<g>
</g>
<g>
</g>
<g>
</g>
<g>
</g>
<g>
</g>
<g>
</g>
</svg>
